<?xml version="1.0" encoding="utf-8"?>
<!-- Svg Vector Icons : http://www.onlinewebfonts.com/icon -->
<!DOCTYPE svg PUBLIC "-//W3C//DTD SVG 1.1//EN" "http://www.w3.org/Graphics/SVG/1.1/DTD/svg11.dtd">
<svg version="1.1" xmlns="http://www.w3.org/2000/svg" xmlns:xlink="http://www.w3.org/1999/xlink" x="0px" y="0px" viewBox="0 0 1000 1000" enable-background="new 0 0 1000 1000" xml:space="preserve">
<metadata> Svg Vector Icons : http://www.onlinewebfonts.com/icon </metadata>
<g><path d="M874.2,374c-8.4-0.6-11.1-4.1-13.6-10.7c-17.5-45.4-43-86.2-77.2-120.6c-100.2-100.4-221-141.6-360.5-113.5C290,156.1,195.4,234.2,140.9,359.1c-4.2,9.5-7.8,16.7-19.9,15.2c-4.4-0.5-9.1,1.3-13.5,2.4C45.3,392.2,6.8,445.3,10.2,510.8c3,57.6,51,107.8,111.8,114.8c11.5,1.3,15.2,6.2,18.8,15.3c28.7,70.6,75.2,127.4,138.2,169.8c93.7,62.9,196.4,82.9,307,58.8c31.9-6.9,62.4-18.2,92.4-34c-9.8-9.6-19.4-18-27.7-27.6c-5.5-6.3-9.9-7-17.4-3.8c-60.5,26-123.8,35.7-188.3,23.2C307.7,800.7,215,721.6,171.9,587c-1.3-3.9-2.8-7.8-4.1-11.4c-6.4,0.9-11.6,1.6-16.8,2.4c-33.9,5-61.7-6.1-80.5-34.4c-18.8-28.4-18.7-59,0.3-87.3c18.7-27.9,46.3-38.8,79.7-34.1c5.8,0.8,11.6,1.5,18,2.3c13.6-50.9,36.4-96.2,70.4-136.1c30.5-35.8,92.2-81.6,122.6-89.3c-16.8,49,12.8,95.8,48.8,114.2c38.8,19.8,79.9,25.5,122.7,17.7c17.7-3.2,33.9-10.4,48.1-21.6c32.6-25.5,35.6-61.9,6-91c-30.6-30.1-67.4-34.5-107.1-22.1c-16.9,5.3-24.2,19.1-19.1,34.2c4.7,13.8,13.8,17.3,32.1,11.3c17.7-5.7,35.2-6,51.5,3.3c5.5,3.1,12.7,9.4,12.7,14.2c0,5.6-6.9,11.3-11.3,16.6c-1.3,1.6-4,2.1-6.1,3c-24.3,10.8-49.4,9.7-74.6,4.7c-17.6-3.5-33.9-10.3-48.1-21.8c-18.1-14.7-19.8-32.7-4.7-50.6c11.1-13.1,24.9-22.7,41.2-27.8c41.6-13,83.9-16.8,126.5-5.4C700,210.2,782.6,283.4,824,401.3c2.7,7.6,4.9,15.4,7.6,23.6c39.8-9.4,74.3-3.2,97.7,32.1c18.1,27.4,18.4,57,0.8,84.7c-23.2,36.5-58.3,42.9-98.4,33.4c-4.4,13.4-8.6,26-12.8,38.9c1.5,0.3,2.5,0.7,3.4,0.6c21.4-4.1,41.8-0.8,61.6,8.1c2.6,1.2,6.3,0.7,9.3-0.1c39.8-10.2,68.1-34.2,85.5-71.3C1014.9,473.9,959.7,379.7,874.2,374z"/><path d="M780.7,652.4c-5.9,2.6-10.7,2.6-16.5-0.2c-17.3-8.1-35.6-9.5-53.9-4.4c-56.6,15.8-81,76.4-51,127.3C685,818.7,725,846,768.5,869c2.1,1.1,5.9,0.8,8.1-0.4c38.1-19.7,72.7-43.8,99-78.3c13.8-18.2,22.5-38.5,22.5-58.7C897.2,668.3,835.8,628.3,780.7,652.4z M847.3,743.6c-8,14.4-18.2,28.2-29.9,39.8c-11.8,11.7-26.4,20.6-40.1,30.3c-2.1,1.5-6.6,2.2-8.6,1c-25.8-16.2-50-34.1-66.8-60.4c-7.3-11.5-10.7-23.5-6.2-36.9c8.2-24.1,37.3-32.9,57.2-17.2c6.7,5.3,12.7,11.4,19.3,17.3c6-5.5,11.7-11,17.7-16.1c13.7-11.6,31.2-12.1,45.5-1.7C849.5,710,855.8,728.3,847.3,743.6z"/><path d="M408.7,631.5c10.5,45.2,52.2,77.4,95.4,73.8c50.3-4.2,86.4-40.9,88.7-90.2c0.6-13.7-8.6-24.8-21.5-26c-12.6-1.2-23.1,7.5-25.3,21c-0.6,3.6-0.8,7.2-1.5,10.7c-4.3,22.1-23.5,37.7-45.7,37.3c-22.6-0.5-41.1-17.3-44.3-40c-0.7-5.2-1.3-10.6-3.2-15.3c-4.3-10.5-16-15.8-26.9-13c-12.2,3.1-18.4,13.1-17.5,28.2C407.6,622.4,407.7,627.1,408.7,631.5z"/><path d="M630.5,511.1c-0.1-18.6-12.8-31.3-30.9-31.2c-18.1,0.1-30.4,13.3-30,32c0.4,18.3,12.8,30.9,30.2,31C617.5,542.9,630.6,529.3,630.5,511.1z"/><path d="M429.9,515c-0.1-18.8-12.4-31.3-30.7-31.1c-18.1,0.2-30.1,13.2-29.7,32c0.4,18.4,12.6,30.9,30.1,30.9C417.5,546.8,430,533.7,429.9,515z"/></g>
</svg>